<svg version="1.1" id="Layer_1" xmlns="http://www.w3.org/2000/svg" x="0" y="0" viewBox="0 0 23 23" xml:space="preserve"><path class="st0" d="M17 1.5c2.48 0 4.5 2.02 4.5 4.5v11c0 2.48-2.02 4.5-4.5 4.5H6.01c-2.48 0-4.5-2.02-4.5-4.5V6c0-2.48 2.02-4.5 4.5-4.5H17M17 0H6.01c-3.3 0-6 2.7-6 6v11c0 3.3 2.7 6 6 6h11c3.3 0 5.99-2.7 5.99-6V6c0-3.3-2.7-6-6-6z"/><path class="st0" d="M11.51 7.08c2.44 0 4.43 1.99 4.43 4.43 0 2.44-1.99 4.43-4.43 4.43-2.44 0-4.43-1.99-4.43-4.43 0-2.45 1.98-4.43 4.43-4.43m0-1.5c-3.27 0-5.93 2.65-5.93 5.93s2.65 5.93 5.93 5.93 5.93-2.65 5.93-5.93-2.66-5.93-5.93-5.93z"/><circle class="st0" cx="17.65" cy="5.38" r="1.34"/></svg>