<?xml version="1.0" encoding="utf-8"?>
<!-- Generator: Adobe Illustrator 24.0.0, SVG Export Plug-In . SVG Version: 6.00 Build 0)  -->
<svg version="1.1" id="Layer_1" xmlns="http://www.w3.org/2000/svg" xmlns:xlink="http://www.w3.org/1999/xlink" x="0px" y="0px"
	 viewBox="0 0 30 15.76" style="enable-background:new 0 0 30 15.76;" xml:space="preserve">
<g>
	<path d="M23.94,15.76c-0.39,0-1.17-0.08-2.08-0.63c-0.64-0.39-1.22-0.97-1.78-1.53c-0.44-0.44-1.17-1.18-1.45-1.18
		c-0.27,0.08-0.48,0.92-0.48,1.57c0,0.11,0,0.77-0.47,1.21c-0.42,0.4-1.09,0.49-1.22,0.5l-1.93,0.01c-0.97,0-4.36-0.22-7.43-3.02
		C3.44,9.33,0.28,2.89,0.15,2.61C-0.05,2.15-0.1,1.55,0.3,1.13c0.39-0.41,1.08-0.47,1.36-0.48l4.08-0.02l0.11,0.01
		c0.09,0.01,0.57,0.1,0.96,0.35C7.2,1.23,7.4,1.64,7.44,1.72C7.45,1.74,8.09,3.15,8.92,4.4c1.31,1.99,1.9,2.45,2.1,2.56
		c0.19-0.42,0.28-1.7,0.19-2.87c0-0.49-0.1-1.1-0.25-1.28c-0.11-0.13-0.43-0.25-0.78-0.29L9.45,1.83c-0.1-0.66,0.64-1.23,1.15-1.45
		C11.34,0.07,12.39,0,13.75,0l0.71,0.01c1.24,0.01,1.62,0.08,2.15,0.19c1.7,0.36,1.64,1.73,1.57,3.31c-0.02,0.46-0.05,1-0.05,1.62
		c0,0.15,0,0.31-0.01,0.48c-0.01,0.38-0.03,1.04,0.09,1.3c0.22-0.15,0.85-0.67,2.07-2.48c0.78-1.16,1.4-2.54,1.52-2.8l0,0
		c0.18-0.43,0.61-0.94,1.61-0.95l4.27-0.02c0.01,0,0.17-0.02,0.38-0.02c0.98,0,1.6,0.29,1.83,0.85c0.27,0.65,0.17,1.66-2.35,4.61
		c-0.37,0.43-0.7,0.8-0.98,1.13c-0.6,0.68-1.22,1.38-1.24,1.59c0.05,0.17,0.66,0.67,1.25,1.15c1.53,1.25,2.53,2.26,3.03,3.07
		c0.52,0.76,0.43,1.33,0.26,1.68c-0.42,0.86-1.64,0.97-1.88,0.99l-3.79,0.05C24.15,15.75,24.06,15.76,23.94,15.76z M18.63,10.92
		c0.9,0,1.68,0.79,2.51,1.62c0.5,0.5,1.01,1.02,1.5,1.31c0.73,0.44,1.32,0.42,1.4,0.41l0.1-0.01l3.81-0.05
		c0.17-0.01,0.41-0.07,0.54-0.14c-0.02-0.04-0.05-0.09-0.1-0.17c-0.45-0.72-1.39-1.66-2.69-2.72c-1.18-0.96-1.8-1.47-1.86-2.24
		c-0.07-0.81,0.49-1.44,1.61-2.7c0.28-0.32,0.6-0.68,0.97-1.11c1.56-1.82,1.96-2.64,2.06-2.96c-0.17-0.03-0.65-0.02-0.68-0.02
		l-4.36,0.03c-0.19,0-0.25,0.03-0.25,0.04C23,2.63,22.36,4.03,21.53,5.26c-1.9,2.82-2.78,3.2-3.41,3.2c-0.2,0-0.4-0.05-0.57-0.15
		c-1-0.57-0.96-1.83-0.93-2.76c0-0.15,0.01-0.3,0.01-0.43c0-0.65,0.02-1.21,0.05-1.69c0.08-1.68,0.02-1.69-0.38-1.78
		c-0.41-0.09-0.7-0.15-1.86-0.16L13.75,1.5c-0.62,0-1.34,0.01-1.91,0.1c0.09,0.07,0.18,0.16,0.26,0.25c0.59,0.7,0.6,1.95,0.6,2.19
		c0.13,1.65,0.06,3.8-1.02,4.31c-0.19,0.09-0.39,0.14-0.6,0.14c-0.93,0-1.85-0.89-3.43-3.27C6.77,3.87,6.11,2.4,6.08,2.34
		C6.07,2.32,6.02,2.26,6,2.24c-0.08-0.05-0.23-0.1-0.32-0.12l-4,0.02c-0.02,0-0.05,0-0.07,0.01c0.59,1.19,3.43,6.59,6.52,9.42
		c2.74,2.5,5.83,2.63,6.42,2.63l1.85,0c0.05-0.01,0.22-0.06,0.27-0.1c-0.02,0.02-0.01-0.05-0.01-0.1c0-0.26,0.01-2.59,1.58-3.03
		C18.36,10.94,18.5,10.92,18.63,10.92z"/>
</g>
</svg>
