<?xml version="1.0" encoding="utf-8"?>
<!-- Generator: Adobe Illustrator 24.0.0, SVG Export Plug-In . SVG Version: 6.00 Build 0)  -->
<svg version="1.1" id="Layer_1" xmlns="http://www.w3.org/2000/svg" xmlns:xlink="http://www.w3.org/1999/xlink" x="0px" y="0px"
	 viewBox="0 0 13.52 27.75" style="enable-background:new 0 0 13.52 27.75;" xml:space="preserve">
<g>
	<path d="M9.53,27.75H2.71v-12.9H0V8.47h2.63c-0.2-2.89,0.3-5,1.52-6.44C5.19,0.8,6.73,0.12,8.74,0l4.78,0v6.15H9.76
		C9.6,6.47,9.51,7.24,9.51,8.47h3.98v6.38H9.53V27.75z M4.22,26.25h3.82v-12.9h3.96V9.97H8.03L8.02,9.24
		c-0.04-2.04,0-3.78,1.01-4.46l0.19-0.13h2.8V1.5H8.78C7.22,1.59,6.07,2.08,5.29,3c-1.04,1.23-1.41,3.3-1.1,6.14l0.09,0.83H1.5v3.38
		h2.72V26.25z"/>
</g>
</svg>
