<?xml version="1.0" encoding="utf-8"?>
<!-- Generator: Adobe Illustrator 24.0.0, SVG Export Plug-In . SVG Version: 6.00 Build 0)  -->
<svg version="1.1" id="Layer_1" xmlns="http://www.w3.org/2000/svg" xmlns:xlink="http://www.w3.org/1999/xlink" x="0px" y="0px"
	 viewBox="0 0 23 23" style="enable-background:new 0 0 23 23;" xml:space="preserve">
<style type="text/css">
	.st0{fill:#231F20;}
</style>
<path class="st0" d="M17,1.5c2.48,0,4.5,2.02,4.5,4.5v11c0,2.48-2.02,4.5-4.5,4.5H6.01c-2.48,0-4.5-2.02-4.5-4.5V6
	c0-2.48,2.02-4.5,4.5-4.5L17,1.5 M17,0H6.01c-3.3,0-6,2.7-6,6v11c0,3.3,2.7,6,6,6h11c3.3,0,5.99-2.7,5.99-6V6C23,2.7,20.3,0,17,0
	L17,0z"/>
<path class="st0" d="M11.51,7.08c2.44,0,4.43,1.99,4.43,4.43c0,2.44-1.99,4.43-4.43,4.43c-2.44,0-4.43-1.99-4.43-4.43
	C7.08,9.06,9.06,7.08,11.51,7.08 M11.51,5.58c-3.27,0-5.93,2.65-5.93,5.93s2.65,5.93,5.93,5.93s5.93-2.65,5.93-5.93
	S14.78,5.58,11.51,5.58L11.51,5.58z"/>
<circle class="st0" cx="17.65" cy="5.38" r="1.34"/>
</svg>
